<?xml version="1.0" encoding="UTF-8" standalone="no"?>
<svg width="141px" height="142px" viewBox="0 0 141 142" version="1.1" xmlns="http://www.w3.org/2000/svg" xmlns:xlink="http://www.w3.org/1999/xlink" xmlns:sketch="http://www.bohemiancoding.com/sketch/ns">
    <!-- Generator: Sketch 3.5.1 (25234) - http://www.bohemiancoding.com/sketch -->
    <title>Page 1 + Produtos com uma his</title>
    <desc>Created with Sketch.</desc>
    <defs></defs>
    <g id="Page-1" stroke="none" stroke-width="1" fill="none" fill-rule="evenodd" sketch:type="MSPage">
        <g id="Desktop-Landscape" sketch:type="MSArtboardGroup" transform="translate(-164.000000, -595.000000)">
            <g id="Page-1-+-Produtos-com-uma-his" sketch:type="MSLayerGroup" transform="translate(166.000000, 597.000000)">
                <g id="Feito" sketch:type="MSShapeGroup">
                    <path d="M136.941593,69.1776622 C136.941593,107.002951 106.360537,137.666551 68.637072,137.666551 C30.9136066,137.666551 0.332551263,107.002951 0.332551263,69.1776622 C0.332551263,31.3523733 30.9136066,0.688773333 68.637072,0.688773333 C106.360537,0.688773333 136.941593,31.3523733 136.941593,69.1776622 L136.941593,69.1776622 Z" id="Stroke-1" stroke="#000000" stroke-width="4"></path>
                    <path d="M43.1004584,59.5674444 L38.5128413,59.5674444 C34.2300459,80.0640222 31.9872109,90.8494889 23.1687915,90.8494889 C20.5181683,90.8494889 18.2233403,89.6228222 18.2233403,86.5551333 C18.2233403,84.9717111 20.0084331,84.0506889 20.8229899,84.0506889 C21.4856457,84.0506889 23.3716661,84.7161556 23.3716661,86.5551333 C23.3716661,87.6294889 22.5571092,88.3961556 22.5571092,88.6517111 C22.5571092,88.9573556 22.8119768,89.2650444 23.3716661,89.2650444 C25.8194147,89.2650444 26.533044,86.5551333 28.0622497,79.6040222 C29.3875613,73.5729111 31.5284492,63.7074444 32.5479197,59.5674444 L28.8268525,59.5674444 L29.2856142,57.4207778 L33.0066814,57.4207778 C34.7397812,50.4686444 38.1550072,44.6930889 44.5786906,44.6930889 C49.0643606,44.6930889 49.5740958,47.7597556 49.5740958,48.7819778 C49.5740958,50.7242 48.1468372,51.4908667 46.9234726,51.4908667 C45.598161,51.4908667 44.4767435,50.4175333 44.4767435,48.9353111 C44.4767435,47.9642 45.2923199,47.1975333 45.2923199,46.8908667 C45.2923199,46.3286444 44.8335582,46.1753111 44.42577,46.1753111 C41.7751468,46.1753111 40.2969146,51.7474444 39.7871794,53.7918889 L38.869656,57.4207778 L43.5592201,57.4207778 L43.1004584,59.5674444 Z" id="Fill-3" fill="#000000"></path>
                    <path d="M50.8476183,69.4322978 C57.5251498,67.6434089 58.9014349,62.8389644 58.9014349,60.1811867 C58.9014349,59.7211867 58.9014349,58.4434089 57.4242222,58.4434089 C54.2628443,58.4434089 51.6631947,65.7011867 50.8476183,69.4322978 L50.8476183,69.4322978 Z M60.9413953,73.9811867 C59.3612161,76.5878533 56.7095734,81.0355422 51.204433,81.0355422 C47.8401805,81.0355422 43.5584045,78.8878533 43.5584045,73.1634089 C43.5584045,66.2122978 50.0320419,56.75572 58.3417456,56.75572 C60.1258189,56.75572 63.5920185,57.6767422 63.5920185,61.3567422 C63.5920185,64.1678533 60.329713,69.53452 50.4908036,71.0678533 C50.2869096,71.9878533 50.1849625,72.6011867 50.1849625,73.5722978 C50.1849625,77.6100756 52.5807181,77.7634089 53.6001885,77.7634089 C56.3527588,77.7634089 58.1888251,75.0034089 59.4631631,73.1122978 L60.9413953,73.9811867 Z" id="Fill-5" fill="#000000"></path>
                    <path d="M75.8241348,45.4085422 C77.7611287,45.4085422 79.3413079,46.9929867 79.3413079,48.8840978 C79.3413079,50.7240978 77.8121022,52.2584533 75.8241348,52.2584533 C73.4283792,52.2584533 72.4598823,50.1107644 72.4598823,48.7818756 C72.4598823,47.5552089 73.5303263,45.4085422 75.8241348,45.4085422 L75.8241348,45.4085422 Z M78.0669698,73.8794756 C75.4673201,77.8661422 73.3264322,80.8305867 69.5543915,80.8305867 C66.5969077,80.8305867 66.0361989,78.6328089 66.0361989,77.4061422 C66.0361989,75.1572533 70.0131532,62.3784533 70.0131532,61.2028978 C70.0131532,59.7717867 68.8397427,59.5673422 67.5654046,59.5673422 L67.0057153,59.5673422 L67.0057153,58.1873422 C69.0446562,58.0340089 73.8361674,57.5740089 77.302367,56.7562311 C75.3143996,64.06512 72.2050147,74.8505867 72.2050147,76.4861422 C72.2050147,76.9972533 72.6637764,77.2528089 72.9696175,77.2528089 C74.1929821,77.2528089 75.9260818,74.6972533 76.9455523,73.16392 L78.0669698,73.8794756 Z" id="Fill-7" fill="#000000"></path>
                    <path d="M94.4294707,59.5674444 L90.1986683,59.5674444 C88.516542,65.803 85.7639718,74.7484667 85.7639718,76.4862444 C85.7639718,77.0995778 86.4776011,77.2529111 86.5285746,77.2529111 C87.8029127,77.2529111 89.7908801,74.2373556 90.4535359,73.1640222 L91.5749534,73.8785556 C89.688933,76.8440222 87.1902109,80.8306889 83.2152956,80.8306889 C79.5441825,80.8306889 79.5441825,77.7640222 79.5441825,77.4062444 C79.5441825,75.3106889 81.9909116,67.643 84.2347661,59.5674444 L81.6340969,59.5674444 L81.6340969,57.7785556 C83.6220643,57.0118889 87.4970715,55.4274444 90.9632711,50.0086444 L92.7473444,50.0086444 L90.759377,57.4207778 L94.4294707,57.4207778 L94.4294707,59.5674444 Z" id="Fill-9" fill="#000000"></path>
                    <path d="M100.188867,75.9748267 C100.188867,76.9970489 100.188867,79.5526044 102.83949,79.5526044 C107.732948,79.5526044 110.690432,65.3437156 110.690432,61.50936 C110.690432,58.9538044 109.569015,58.2382489 108.242684,58.2382489 C102.737543,58.2382489 100.188867,72.7037156 100.188867,75.9748267 M116.756281,64.6271378 C116.756281,72.2437156 110.435565,81.0348267 102.278782,81.0348267 C98.0989526,81.0348267 94.1230178,78.3259378 94.1230178,73.4192711 C94.1230178,65.5471378 100.698602,56.7560267 108.752419,56.7560267 C110.690432,56.7560267 116.756281,57.7782489 116.756281,64.6271378" id="Fill-11" fill="#000000"></path>
                </g>
            </g>
        </g>
    </g>
</svg>