<svg width="94" height="94" viewBox="0 0 94 94" xmlns="http://www.w3.org/2000/svg"><title>Group 4 Copy</title><g transform="translate(1 1)" fill="none" fill-rule="evenodd"><circle stroke="#000" cx="46" cy="46" r="46"/><g fill="#000"><path d="M67.383 49.03c0 5.064-4.177 9.114-9.113 9.114-.886 0-1.898-.127-2.658-.38 1.52-2.658 2.405-5.695 2.405-8.986 0-1.52-.253-2.91-.633-4.43l-.632.886c-.127.127-.254.253-.38.253.253 1.14.38 2.28.38 3.418 0 3.037-.886 5.948-2.405 8.48-3.164-1.52-5.316-4.683-5.316-8.354 0-.632 0-1.264.128-1.77h-.127c-.378 0-.758-.127-1.01-.38-.128.76-.254 1.392-.254 2.15 0 4.05 2.404 7.595 5.822 9.367-3.038 4.176-7.847 6.834-13.416 6.834-9.113 0-16.58-7.34-16.58-16.452 0-9.112 7.467-16.453 16.58-16.453a16.5 16.5 0 0 1 10.884 4.05l.886-.886c-3.164-2.785-7.214-4.43-11.77-4.43-9.872 0-17.845 7.846-17.845 17.718s7.973 17.72 17.845 17.72c6.075 0 11.39-3.04 14.68-7.595a9.663 9.663 0 0 0 3.418.633 10.344 10.344 0 0 0 10.378-10.378c0-4.303-2.53-7.974-6.2-9.492l-1.014 1.012c3.418 1.14 5.95 4.43 5.95 8.353z"/><path d="M66.75 22.96c-.253 0-.38 0-.506.126l-15.82 15.947c-.127.126-.127.126-.127.253l-1.9 5.822c-.125.253 0 .506.128.633.127.127.253.254.506.254h.128l6.328-1.52c.127 0 .253-.126.253-.126l15.82-15.82c.126-.126.253-.38.126-.506v-.127c-.253-2.657-2.278-4.682-4.936-4.936zM50.803 44.22c-.126-.253-.38-.506-.506-.633l1.14-3.418c1.01.38 1.897 1.14 2.53 2.025.127.126.38.253.506.253.127 0 .254 0 .38-.127.253-.253.38-.632.127-.885-.76-1.013-1.772-1.9-2.91-2.405l14.933-14.935c1.772.254 3.29 1.772 3.544 3.544L54.98 43.336l-4.177.886z"/></g><path d="M6 6h81v81H6z"/></g></svg>