<svg width="141" height="142" viewBox="0 0 141 142" xmlns="http://www.w3.org/2000/svg"><title>Page 1 + Produtos com uma his</title><g fill="none" fill-rule="evenodd"><path d="M138.942 71.178c0 37.825-30.58 68.49-68.305 68.49-37.723 0-68.304-30.665-68.304-68.49 0-37.826 30.58-68.49 68.304-68.49 37.724 0 68.305 30.664 68.305 68.49z" stroke="#000" stroke-width="4"/><path d="M45.1 61.567h-4.587C36.23 82.064 33.987 92.85 25.17 92.85c-2.652 0-4.947-1.227-4.947-4.295 0-1.583 1.785-2.504 2.6-2.504.663 0 2.55.666 2.55 2.505 0 1.074-.816 1.84-.816 2.097 0 .305.255.613.815.613 2.447 0 3.16-2.71 4.69-9.66 1.326-6.032 3.466-15.898 4.486-20.038h-3.72l.458-2.146h3.72c1.734-6.95 5.15-12.727 11.573-12.727 4.484 0 4.994 3.067 4.994 4.09 0 1.94-1.427 2.708-2.65 2.708-1.326 0-2.447-1.072-2.447-2.555 0-.97.815-1.737.815-2.044 0-.56-.458-.715-.866-.715-2.65 0-4.13 5.572-4.64 7.617l-.916 3.63h4.69l-.46 2.145zM52.848 71.432c6.677-1.79 8.053-6.593 8.053-9.25 0-.46 0-1.74-1.476-1.74-3.16 0-5.76 7.26-6.576 10.99zm10.093 4.55c-1.58 2.606-4.23 7.054-9.736 7.054-3.364 0-7.646-2.148-7.646-7.873 0-6.95 6.474-16.407 14.784-16.407 1.784 0 5.25.92 5.25 4.6 0 2.812-3.262 8.18-13.1 9.712-.205.92-.307 1.533-.307 2.504 0 4.038 2.396 4.19 3.415 4.19 2.753 0 4.59-2.76 5.863-4.65l1.478.87zM77.824 47.41c1.937 0 3.517 1.583 3.517 3.474 0 1.84-1.528 3.374-3.516 3.374-2.396 0-3.364-2.147-3.364-3.476 0-1.227 1.07-3.373 3.364-3.373zm2.243 28.47c-2.6 3.986-4.74 6.95-8.513 6.95-2.957 0-3.518-2.197-3.518-3.424 0-2.25 3.977-15.028 3.977-16.203 0-1.43-1.173-1.636-2.448-1.636h-.56v-1.38c2.04-.153 6.83-.613 10.297-1.43-1.988 7.308-5.097 18.094-5.097 19.73 0 .51.46.766.765.766 1.223 0 2.956-2.556 3.976-4.09l1.12.716zM96.43 61.567H92.2c-1.683 6.236-4.436 15.18-4.436 16.92 0 .613.714.766.765.766 1.273 0 3.26-3.016 3.924-4.09l1.12.716c-1.885 2.964-4.384 6.95-8.36 6.95-3.67 0-3.67-3.066-3.67-3.424 0-2.095 2.447-9.763 4.69-17.84h-2.6V59.78c1.988-.768 5.863-2.353 9.33-7.77h1.783l-1.988 7.41h3.67v2.147zM102.19 77.975c0 1.022 0 3.578 2.65 3.578 4.893 0 7.85-14.21 7.85-18.044 0-2.556-1.12-3.272-2.447-3.272-5.505 0-8.054 14.466-8.054 17.737m16.566-11.348c0 7.617-6.32 16.408-14.477 16.408-4.18 0-8.157-2.71-8.157-7.616 0-7.873 6.576-16.664 14.63-16.664 1.937 0 8.003 1.022 8.003 7.87" fill="#000"/></g></svg>