<?xml version="1.0" encoding="UTF-8" standalone="no"?>
<svg width="94px" height="94px" viewBox="0 0 94 94" version="1.1" xmlns="http://www.w3.org/2000/svg" xmlns:xlink="http://www.w3.org/1999/xlink" xmlns:sketch="http://www.bohemiancoding.com/sketch/ns">
    <!-- Generator: Sketch 3.5.1 (25234) - http://www.bohemiancoding.com/sketch -->
    <title>Group 3</title>
    <desc>Created with Sketch.</desc>
    <defs></defs>
    <g id="Page-1" stroke="none" stroke-width="1" fill="none" fill-rule="evenodd" sketch:type="MSPage">
        <g id="Desktop-Landscape" sketch:type="MSArtboardGroup" transform="translate(-696.000000, -1270.000000)">
            <g id="Group-3" sketch:type="MSLayerGroup" transform="translate(697.000000, 1271.000000)">
                <circle id="Oval-33" stroke="#000000" sketch:type="MSShapeGroup" cx="46" cy="46" r="46"></circle>
                <g id="noun_64542_cc" transform="translate(25.000000, 17.000000)" fill="#000000" sketch:type="MSShapeGroup">
                    <g id="Group">
                        <g>
                            <path d="M24.9864865,8.08888889 L18.0135135,8.08888889 L18.0135135,15.0222222 L24.9864865,15.0222222 L24.9864865,8.08888889 L24.9864865,8.08888889 Z M23.8243243,13.8666667 L19.1756757,13.8666667 L19.1756757,9.24444444 L23.8243243,9.24444444 L23.8243243,13.8666667 L23.8243243,13.8666667 Z" id="Shape"></path>
                            <path d="M13.9459459,39.2888889 L29.0540541,39.2888889 L29.0540541,26.5777778 L13.9459459,26.5777778 L13.9459459,39.2888889 L13.9459459,39.2888889 Z M15.1081081,27.7333333 L27.8918919,27.7333333 L27.8918919,29.1777778 L15.1081081,29.1777778 L15.1081081,27.7333333 L15.1081081,27.7333333 Z M15.1081081,29.7555556 L27.8918919,29.7555556 L27.8918919,38.1333333 L15.1081081,38.1333333 L15.1081081,29.7555556 L15.1081081,29.7555556 Z" id="Shape"></path>
                            <rect id="Rectangle-path" x="20.3378378" y="10.4" width="2.32432432" height="1.15555556"></rect>
                            <path d="M40.0945946,20.2222222 L34.8648649,20.2222222 L34.8648649,19.0666667 L34.2837838,19.0666667 C30.6671351,19.0666667 29.0540541,18.3161333 29.0540541,13.8666667 L29.0540541,4.04444444 L26.7297297,4.04444444 L26.7297297,0 L25.5675676,0 L25.5675676,4.04444444 L21.5,4.04444444 L17.4324324,4.04444444 L17.4324324,0 L16.2702703,0 L16.2702703,4.04444444 L13.9459459,4.04444444 L13.9459459,13.8666667 C13.9459459,18.3161333 12.3328649,19.0666667 8.71621622,19.0666667 L8.13513514,19.0666667 L8.13513514,20.2222222 L2.90540541,20.2222222 C1.84958108,20.2222222 1.20458108,20.6636444 0.850121622,21.0334222 C0.395716216,21.5077778 0.14527027,22.1433333 0.14527027,22.8222222 C0.14527027,24.1141333 1.09359459,25.4222222 2.90540541,25.4222222 C4.00887838,25.4222222 4.50337838,26.1479111 4.50337838,26.8666667 C4.50337838,27.2474222 4.36682432,27.5998667 4.1187027,27.8587111 C3.83571622,28.1545333 3.41559459,28.3111111 2.90540541,28.3111111 L2.90540541,29.4666667 C3.96122973,29.4666667 4.60622973,29.0252444 4.96068919,28.6554667 C5.41509459,28.1811111 5.66554054,27.5455556 5.66554054,26.8666667 C5.66554054,25.5747556 4.71721622,24.2666667 2.90540541,24.2666667 C1.80193243,24.2666667 1.30743243,23.5409778 1.30743243,22.8222222 C1.30743243,22.1034667 1.80193243,21.3777778 2.90540541,21.3777778 L8.13513514,21.3777778 L8.13513514,52 L21.5,52 L34.8648649,52 L34.8648649,21.3777778 L40.0945946,21.3777778 C41.1980676,21.3777778 41.6925676,22.1034667 41.6925676,22.8222222 C41.6925676,23.2029778 41.5560135,23.5554222 41.3078919,23.8142667 C41.0249054,24.1100889 40.6047838,24.2666667 40.0945946,24.2666667 C39.0387703,24.2666667 38.3937703,24.7080889 38.0393108,25.0778667 C37.5849054,25.5522222 37.3344595,26.1877778 37.3344595,26.8666667 C37.3344595,28.1585778 38.2827838,29.4666667 40.0945946,29.4666667 L40.0945946,28.3111111 C38.9911216,28.3111111 38.4966216,27.5854222 38.4966216,26.8666667 C38.4966216,26.4859111 38.6331757,26.1334667 38.8812973,25.8746222 C39.1642838,25.5788 39.5844054,25.4222222 40.0945946,25.4222222 C41.1504189,25.4222222 41.7954189,24.9808 42.1498784,24.6110222 C42.6042838,24.1366667 42.8547297,23.5011111 42.8547297,22.8222222 C42.8547297,21.5303111 41.9064054,20.2222222 40.0945946,20.2222222 L40.0945946,20.2222222 Z M33.7027027,50.8444444 L21.5,50.8444444 L9.2972973,50.8444444 L9.2972973,49.6888889 L12.7837838,49.6888889 L12.7837838,48.5333333 L9.2972973,48.5333333 L9.2972973,47.3777778 L11.6216216,47.3777778 L11.6216216,46.2222222 L9.2972973,46.2222222 L9.2972973,20.2135556 C12.9011622,20.1049333 15.1081081,18.8944889 15.1081081,13.8666667 L15.1081081,5.2 L16.2702703,5.2 L16.2702703,6.35555556 C16.2702703,6.67448889 16.5300135,6.93333333 16.8513514,6.93333333 C17.1726892,6.93333333 17.4324324,6.67448889 17.4324324,6.35555556 L17.4324324,5.2 L21.5,5.2 L25.5675676,5.2 L25.5675676,6.35555556 C25.5675676,6.67448889 25.8273108,6.93333333 26.1486486,6.93333333 C26.4699865,6.93333333 26.7297297,6.67448889 26.7297297,6.35555556 L26.7297297,5.2 L27.8918919,5.2 L27.8918919,13.8666667 C27.8918919,17.6436 28.8820541,20.0379111 33.7027027,20.2118222 L33.7027027,50.8444444 L33.7027027,50.8444444 Z" id="Shape"></path>
                        </g>
                    </g>
                </g>
            </g>
        </g>
    </g>
</svg>