<?xml version="1.0" encoding="UTF-8" standalone="no"?>
<svg width="94px" height="94px" viewBox="0 0 94 94" version="1.1" xmlns="http://www.w3.org/2000/svg" xmlns:xlink="http://www.w3.org/1999/xlink" xmlns:sketch="http://www.bohemiancoding.com/sketch/ns">
    <!-- Generator: Sketch 3.5.1 (25234) - http://www.bohemiancoding.com/sketch -->
    <title>Group 2</title>
    <desc>Created with Sketch.</desc>
    <defs></defs>
    <g id="Page-1" stroke="none" stroke-width="1" fill="none" fill-rule="evenodd" sketch:type="MSPage">
        <g id="Desktop-Landscape" sketch:type="MSArtboardGroup" transform="translate(-922.000000, -1270.000000)">
            <g id="Group-2" sketch:type="MSLayerGroup" transform="translate(923.000000, 1271.000000)">
                <circle id="Oval-33" stroke="#000000" sketch:type="MSShapeGroup" cx="46" cy="46" r="46"></circle>
                <g id="noun_199987_cc" transform="translate(18.000000, 34.000000)" fill="#000000" sketch:type="MSShapeGroup">
                    <g id="Group">
                        <path d="M45.0889,0.121894737 C42.2135667,0.121894737 39.5732,1.14315789 37.5129667,2.84084211 C37.7758,3.09978947 38.0259667,3.37136842 38.266,3.65178947 C40.128,2.136 42.503,1.22463158 45.0889,1.22463158 C51.0466667,1.22463158 55.8942,6.05873684 55.8942,12 C55.8942,17.9412632 51.0466667,22.7753684 45.0889,22.7753684 C39.1311333,22.7753684 34.2836,17.9412632 34.2836,12 C34.2836,9.71747368 35.0011667,7.59978947 36.2197,5.856 C35.9847333,5.55978947 35.7345667,5.27621053 35.4673,5.00905263 C34.029,6.972 33.1771667,9.38842105 33.1771667,12 C33.1771667,18.5494737 38.5206,23.8781053 45.0882667,23.8781053 C51.6559333,23.8781053 57,18.5494737 57,12 C57,5.45052632 51.6565667,0.121894737 45.0889,0.121894737 L45.0889,0.121894737 Z" id="Shape"></path>
                        <path d="M18.6510333,20.4132632 C16.8017,21.8892632 14.459,22.7753684 11.9111,22.7753684 C5.95333333,22.7753684 1.1058,17.9412632 1.1058,12 C1.1058,6.05873684 5.95333333,1.22463158 11.9111,1.22463158 C17.8688667,1.22463158 22.7164,6.05873684 22.7164,12 C22.7164,14.3235789 21.9728667,16.4753684 20.7138,18.2374737 C20.9519333,18.5298947 21.2059,18.8077895 21.4750667,19.0711579 C22.9488333,17.0943158 23.8222,14.6469474 23.8222,12 C23.8222,5.45052632 18.4787667,0.121894737 11.9111,0.121894737 C5.34343333,0.121894737 0,5.45052632 0,12 C0,18.5494737 5.34343333,23.8781053 11.9111,23.8781053 C14.7509667,23.8781053 17.3615667,22.8802105 19.4104,21.2191579 C19.1456667,20.9621053 18.8929667,20.6924211 18.6510333,20.4132632 L18.6510333,20.4132632 Z" id="Shape"></path>
                        <path d="M35.2526,20.3482105 C33.3906,21.864 31.0156,22.7753684 28.4297,22.7753684 C22.4719333,22.7753684 17.6244,17.9412632 17.6244,12 C17.6244,9.67642105 18.3679333,7.52463158 19.627,5.76252632 C19.3888667,5.47010526 19.1349,5.19221053 18.8657333,4.92884211 C17.3919667,6.90568421 16.5186,9.35305263 16.5186,12 C16.5186,18.5494737 21.8620333,23.8781053 28.4297,23.8781053 C31.3050333,23.8781053 33.9454,22.8568421 36.0056333,21.1591579 C35.7434333,20.9002105 35.4926333,20.6286316 35.2526,20.3482105 L35.2526,20.3482105 Z" id="Shape"></path>
                        <path d="M28.4303333,1.22463158 C34.3881,1.22463158 39.2356333,6.05873684 39.2356333,12 C39.2356333,14.2825263 38.5180667,16.4002105 37.2995333,18.144 C37.5345,18.4402105 37.7846667,18.7237895 38.0519333,18.9909474 C39.4902333,17.028 40.3420667,14.6115789 40.3420667,12 C40.3420667,5.45052632 34.9986333,0.121894737 28.4309667,0.121894737 C25.5911,0.121894737 22.9805,1.11978947 20.9316667,2.78084211 C21.1964,3.03852632 21.4491,3.30757895 21.6916667,3.58736842 C23.5397333,2.11010526 25.8824333,1.22463158 28.4303333,1.22463158 L28.4303333,1.22463158 Z" id="Shape"></path>
                    </g>
                </g>
            </g>
        </g>
    </g>
</svg>