<svg width="94" height="94" viewBox="0 0 94 94" xmlns="http://www.w3.org/2000/svg"><title>Group 2</title><g transform="translate(1 1)" fill="none" fill-rule="evenodd"><circle stroke="#000" cx="46" cy="46" r="46"/><g fill="#000"><path d="M63.09 34.122c-2.876 0-5.517 1.02-7.577 2.72.263.258.513.53.753.81a10.773 10.773 0 0 1 6.823-2.427c5.957 0 10.804 4.834 10.804 10.775 0 5.94-4.847 10.775-10.805 10.775-5.96 0-10.806-4.834-10.806-10.775 0-2.283.717-4.4 1.936-6.144a9.856 9.856 0 0 0-.753-.847 11.79 11.79 0 0 0-2.29 6.99c0 6.55 5.344 11.878 11.91 11.878C69.658 57.878 75 52.548 75 46c0-6.55-5.343-11.878-11.91-11.878zM36.65 54.413a10.77 10.77 0 0 1-6.74 2.362c-5.957 0-10.804-4.834-10.804-10.775 0-5.94 4.847-10.775 10.805-10.775 5.96 0 10.806 4.834 10.806 10.775 0 2.324-.743 4.475-2.002 6.237.238.293.492.57.76.834A11.793 11.793 0 0 0 41.823 46c0-6.55-5.343-11.878-11.91-11.878C23.34 34.122 18 39.452 18 46c0 6.55 5.343 11.878 11.91 11.878 2.84 0 5.452-.998 7.5-2.66a12.877 12.877 0 0 1-.76-.805z"/><path d="M53.253 54.348a10.773 10.773 0 0 1-6.823 2.427c-5.958 0-10.806-4.834-10.806-10.775 0-2.324.744-4.475 2.003-6.237-.238-.293-.492-.57-.76-.834A11.793 11.793 0 0 0 34.518 46c0 6.55 5.342 11.878 11.91 11.878 2.875 0 5.515-1.02 7.576-2.72-.263-.258-.513-.53-.753-.81zM46.43 35.225c5.958 0 10.806 4.834 10.806 10.775 0 2.283-.718 4.4-1.936 6.144.235.296.485.58.752.847a11.79 11.79 0 0 0 2.29-6.99c0-6.55-5.343-11.878-11.91-11.878-2.84 0-5.452.998-7.5 2.66.264.257.517.526.76.805a10.758 10.758 0 0 1 6.738-2.362z"/></g></g></svg>