<svg width="94" height="94" viewBox="0 0 94 94" xmlns="http://www.w3.org/2000/svg"><title>Group 3</title><g transform="translate(1 1)" fill="none" fill-rule="evenodd"><circle stroke="#000" cx="46" cy="46" r="46"/><g fill="#000"><path d="M49.986 25.09h-6.972v6.932h6.972V25.09zm-1.162 5.777h-4.648v-4.623h4.648v4.623zM38.946 56.29h15.108V43.577H38.946v12.71zm1.162-11.557h12.784v1.445H40.108v-1.445zm0 2.023h12.784v8.377H40.108v-8.377z"/><path d="M45.338 27.4h2.324v1.156h-2.324z"/><path d="M65.095 37.222h-5.23v-1.155h-.58c-3.618 0-5.23-.75-5.23-5.2v-9.823H51.73V17h-1.162v4.044h-8.136V17H41.27v4.044h-2.324v9.823c0 4.45-1.613 5.2-5.23 5.2h-.58v1.155h-5.23c-1.056 0-1.7.442-2.056.81a2.57 2.57 0 0 0-.705 1.79c0 1.292.95 2.6 2.76 2.6 1.104 0 1.598.726 1.598 1.445 0 .38-.136.733-.384.992-.284.295-.704.45-1.215.45v1.157c1.056 0 1.7-.442 2.056-.812a2.57 2.57 0 0 0 .706-1.788c0-1.292-.95-2.6-2.76-2.6-1.104 0-1.6-.726-1.6-1.445 0-.72.496-1.444 1.6-1.444h5.23V69h26.729V38.378h5.23c1.103 0 1.598.725 1.598 1.444 0 .38-.137.733-.385.992-.283.296-.703.453-1.213.453-1.056 0-1.7.44-2.056.81a2.57 2.57 0 0 0-.706 1.79c0 1.292.95 2.6 2.76 2.6V45.31c-1.103 0-1.597-.725-1.597-1.443 0-.38.136-.734.384-.992.284-.296.704-.453 1.215-.453 1.055 0 1.7-.44 2.055-.81a2.57 2.57 0 0 0 .705-1.79c0-1.292-.95-2.6-2.76-2.6zm-6.392 30.622H34.297V66.69h3.487v-1.157h-3.487v-1.155h2.325v-1.156h-2.325V37.214c3.604-.11 5.81-1.32 5.81-6.347V22.2h1.163v1.156c0 .318.26.577.58.577.323 0 .582-.26.582-.577V22.2h8.136v1.156c0 .318.26.577.58.577.322 0 .582-.26.582-.577V22.2h1.162v8.667c0 3.777.99 6.17 5.81 6.345v30.632z"/></g></g></svg>