<?xml version="1.0" encoding="UTF-8" standalone="no"?>
<svg width="94px" height="94px" viewBox="0 0 94 94" version="1.1" xmlns="http://www.w3.org/2000/svg" xmlns:xlink="http://www.w3.org/1999/xlink" xmlns:sketch="http://www.bohemiancoding.com/sketch/ns">
    <!-- Generator: Sketch 3.5.1 (25234) - http://www.bohemiancoding.com/sketch -->
    <title>Group 4 Copy</title>
    <desc>Created with Sketch.</desc>
    <defs></defs>
    <g id="Page-1" stroke="none" stroke-width="1" fill="none" fill-rule="evenodd" sketch:type="MSPage">
        <g id="Desktop-Landscape" sketch:type="MSArtboardGroup" transform="translate(-488.000000, -1265.000000)">
            <g id="Group-4-Copy" sketch:type="MSLayerGroup" transform="translate(489.000000, 1266.000000)">
                <circle id="Oval-33" stroke="#000000" sketch:type="MSShapeGroup" cx="46" cy="46" r="46"></circle>
                <g id="noun_317039_cc" transform="translate(6.000000, 6.000000)" sketch:type="MSShapeGroup">
                    <g id="Group">
                        <g transform="translate(15.187500, 16.453125)" id="Shape" fill="#000000">
                            <path d="M46.1953125,26.578125 C46.1953125,31.640625 42.01875,35.690625 37.0828125,35.690625 C36.196875,35.690625 35.184375,35.5640625 34.425,35.3109375 C35.94375,32.653125 36.8296875,29.615625 36.8296875,26.325 C36.8296875,24.80625 36.5765625,23.4140625 36.196875,21.8953125 L35.5640625,22.78125 C35.4375,22.9078125 35.3109375,23.034375 35.184375,23.034375 C35.4375,24.1734375 35.5640625,25.3125 35.5640625,26.4515625 C35.5640625,29.4890625 34.678125,32.4 33.159375,34.93125 C29.9953125,33.4125 27.84375,30.2484375 27.84375,26.578125 C27.84375,25.9453125 27.84375,25.3125 27.9703125,24.80625 L27.84375,24.80625 C27.4640625,24.80625 27.084375,24.6796875 26.83125,24.4265625 C26.7046875,25.1859375 26.578125,25.81875 26.578125,26.578125 C26.578125,30.628125 28.9828125,34.171875 32.4,35.94375 C29.3625,40.1203125 24.553125,42.778125 18.984375,42.778125 C9.871875,42.778125 2.4046875,35.4375 2.4046875,26.325 C2.4046875,17.2125 9.871875,9.871875 18.984375,9.871875 C23.1609375,9.871875 26.9578125,11.390625 29.86875,13.921875 L30.7546875,13.0359375 C27.590625,10.2515625 23.540625,8.60625 18.984375,8.60625 C9.1125,8.60625 1.1390625,16.453125 1.1390625,26.325 C1.1390625,36.196875 9.1125,44.04375 18.984375,44.04375 C25.059375,44.04375 30.375,41.00625 33.665625,36.45 C34.678125,36.8296875 35.8171875,37.0828125 37.0828125,37.0828125 C42.9046875,37.0828125 47.4609375,32.4 47.4609375,26.7046875 C47.4609375,22.4015625 44.9296875,18.73125 41.259375,17.2125 L40.246875,18.225 C43.6640625,19.3640625 46.1953125,22.6546875 46.1953125,26.578125 L46.1953125,26.578125 Z"></path>
                            <path d="M45.5625,0.50625 C45.309375,0.50625 45.1828125,0.50625 45.05625,0.6328125 L29.2359375,16.5796875 L29.2359375,16.5796875 C29.109375,16.70625 29.109375,16.70625 29.109375,16.8328125 L29.109375,16.8328125 L27.2109375,22.6546875 C27.084375,22.9078125 27.2109375,23.1609375 27.3375,23.2875 C27.4640625,23.4140625 27.590625,23.540625 27.84375,23.540625 L27.9703125,23.540625 L34.2984375,22.021875 C34.425,22.021875 34.5515625,21.8953125 34.5515625,21.8953125 L50.371875,6.075 C50.4984375,5.9484375 50.625,5.6953125 50.4984375,5.56875 L50.4984375,5.4421875 C50.2453125,2.784375 48.2203125,0.759375 45.5625,0.50625 L45.5625,0.50625 Z M29.615625,21.76875 C29.4890625,21.515625 29.2359375,21.2625 29.109375,21.1359375 L30.2484375,17.71875 C31.2609375,18.0984375 32.146875,18.8578125 32.7796875,19.74375 C32.90625,19.8703125 33.159375,19.996875 33.2859375,19.996875 C33.4125,19.996875 33.5390625,19.996875 33.665625,19.8703125 C33.91875,19.6171875 34.0453125,19.2375 33.7921875,18.984375 C33.0328125,17.971875 32.0203125,17.0859375 30.88125,16.5796875 L45.815625,1.6453125 C47.5875,1.8984375 49.10625,3.4171875 49.359375,5.1890625 L33.7921875,20.8828125 L29.615625,21.76875 L29.615625,21.76875 Z"></path>
                        </g>
                        <rect id="Rectangle-path" x="0" y="0" width="81" height="81"></rect>
                    </g>
                </g>
            </g>
        </g>
    </g>
</svg>