<?xml version="1.0" encoding="UTF-8" standalone="no"?>
<svg width="149px" height="149px" viewBox="0 0 149 149" version="1.1" xmlns="http://www.w3.org/2000/svg" xmlns:xlink="http://www.w3.org/1999/xlink" xmlns:sketch="http://www.bohemiancoding.com/sketch/ns">
    <!-- Generator: Sketch 3.4.2 (15857) - http://www.bohemiancoding.com/sketch -->
    <title>Page 1</title>
    <desc>Created with Sketch.</desc>
    <defs>
        <path id="path-1" d="M0,0.325148305 L148.674852,0.325148305 L148.674852,149 L0,149"></path>
    </defs>
    <g id="Page-1" stroke="none" stroke-width="1" fill="none" fill-rule="evenodd" sketch:type="MSPage">
        <g id="Desktop-HD" sketch:type="MSArtboardGroup" transform="translate(-646.000000, -96.000000)">
            <g id="Page-1" sketch:type="MSLayerGroup" transform="translate(646.000000, 96.000000)">
                <path d="M45.6678686,65.569786 L40.6025,65.569786 L37.4356186,80.5575445 C35.4822034,89.7406165 32.2641822,97.7613623 25.349572,97.7613623 C22.1315508,97.7613623 20.5481102,95.8616123 20.5481102,94.0679301 C20.5481102,92.2736165 21.4452669,91.0064852 23.2395805,91.0064852 C24.5584831,91.0064852 25.5086737,91.7982055 25.5086737,93.012303 C25.5086737,94.3842394 24.8754237,94.3842394 24.8754237,95.1759597 C24.8754237,95.545303 25.1386992,95.7568072 25.8249831,95.7568072 C27.7247331,95.7568072 28.8333941,94.120964 30.2053305,87.6287309 L34.7965508,65.569786 L29.7299195,65.569786 L30.3638008,63.1422225 L35.2195593,63.1422225 C37.0132415,56.5458157 39.8625508,49.5264004 46.1432797,49.5264004 C49.3095297,49.5264004 51.7894958,50.8989682 51.7894958,53.5367733 C51.7894958,55.1732479 50.8399364,56.2819089 48.992589,56.2819089 C47.5152161,56.2819089 46.5126229,55.2786843 46.5126229,54.1176208 C46.5126229,52.8504894 47.1982754,52.7456843 47.1982754,52.0076292 C47.1982754,51.5322182 46.6704619,51.3213453 46.1432797,51.3213453 C43.926589,51.3213453 42.2901144,55.2786843 41.0236144,63.1422225 L46.0902458,63.1422225 L45.6678686,65.569786 Z" id="Fill-1" fill="#FFFFFF" sketch:type="MSShapeGroup"></path>
                <path d="M51.931172,74.8360076 C55.4673966,73.6749441 62.1698712,70.5610966 62.1698712,65.7596347 C62.1698712,64.4925034 61.3781508,63.4892788 60.0062144,63.4892788 C55.6782695,63.4892788 52.5113881,71.5112873 51.931172,74.8360076 L51.931172,74.8360076 Z M64.1750576,81.802389 C61.800528,84.5992958 57.6834559,87.5546729 52.8289602,87.5546729 C48.2371085,87.5546729 45.2817314,84.5992958 45.2817314,79.4796305 C45.2817314,70.6665331 52.7759263,61.4847237 61.0088076,61.4847237 C64.8083076,61.4847237 67.341939,62.9620966 67.341939,66.1283466 C67.341939,72.7771559 56.5223924,75.6807619 51.5618288,76.8418254 C51.4039898,77.7913847 51.297922,78.7946093 51.297922,79.6387322 C51.297922,82.5410754 52.7759263,84.3884229 55.7843373,84.3884229 C57.6834559,84.3884229 60.4279602,83.2791305 62.9615915,80.4822237 L64.1750576,81.802389 Z" id="Fill-3" fill="#FFFFFF" sketch:type="MSShapeGroup"></path>
                <path d="M79.4404864,50.1595242 C81.2878339,50.1595242 82.8182407,51.6905623 82.8182407,53.5372784 C82.8182407,55.3846258 81.2878339,56.9144013 79.4404864,56.9144013 C77.5937703,56.9144013 76.0627322,55.3846258 76.0627322,53.5372784 C76.0627322,51.6905623 77.5937703,50.1595242 79.4404864,50.1595242 L79.4404864,50.1595242 Z M70.8388932,62.772753 C75.2710119,62.2449394 79.5459229,61.4538504 80.2315754,61.4538504 C80.5491475,61.4538504 80.8654568,61.5586555 80.8654568,61.8231936 C80.8654568,62.1925369 80.6545839,62.7209818 80.3376432,63.8277487 C79.9689314,65.2533504 75.3770797,80.3989479 75.3770797,82.721075 C75.3770797,83.6182318 75.693389,83.8291047 76.2742364,83.8291047 C77.7522407,83.8291047 79.177211,81.1376343 79.7043932,80.2935114 L80.7069864,80.8737275 C79.8098297,82.6162699 77.2768297,87.5237996 72.6856093,87.5237996 C70.6280203,87.5237996 69.360889,86.3103335 69.360889,84.3045157 C69.360889,81.2961047 73.8460415,66.7837572 73.8460415,65.6220623 C73.8460415,64.2501258 72.844711,63.9862191 70.5749864,63.9338165 L70.8388932,62.772753 Z" id="Fill-5" fill="#FFFFFF" sketch:type="MSShapeGroup"></path>
                <path d="M85.9241962,62.5091619 C90.6214843,61.5583398 94.1040436,58.8144669 95.6874843,54.4341195 L97.3769928,54.4341195 L95.6344504,62.0867847 L101.070425,62.0867847 L100.595014,64.5149797 L95.1066369,64.5149797 C93.1544843,72.7465983 90.7793233,81.5072932 90.7793233,82.9328949 C90.7793233,83.5661449 91.2017004,84.0409246 91.8349504,84.0409246 C92.8905775,84.0409246 94.3685818,82.5105178 96.1098614,80.1353568 L97.113086,80.9270771 C95.8453233,82.8268271 92.6266708,87.5234839 88.4578275,87.5234839 C85.9241962,87.5234839 84.7631326,86.5208907 84.7631326,84.3572339 C84.7631326,81.9827042 87.3491665,72.7465983 89.3019504,64.5149797 L85.554853,64.5149797 L85.9241962,62.5091619 Z" id="Fill-7" fill="#FFFFFF" sketch:type="MSShapeGroup"></path>
                <path d="M110.363984,85.5184869 C116.748256,85.5184869 118.913175,72.0611352 118.913175,68.2616352 C118.913175,64.988686 117.223667,63.4589106 115.165446,63.4589106 C108.991417,63.4589106 106.615624,77.0216987 106.615624,80.8218301 C106.615624,84.2513555 108.040594,85.5184869 110.363984,85.5184869 M110.415756,87.5236733 C105.666696,87.5236733 100.810938,84.6737326 100.810938,77.6025462 C100.810938,70.0029148 107.197103,61.4537242 115.113044,61.4537242 C119.862734,61.4537242 124.71723,64.3030335 124.71723,71.4809191 C124.71723,78.9744826 118.331696,87.5236733 110.415756,87.5236733" id="Fill-9" fill="#FFFFFF" sketch:type="MSShapeGroup"></path>
                <g id="Group-13">
                    <mask id="mask-2" sketch:name="Clip 12" fill="white">
                        <use xlink:href="#path-1"></use>
                    </mask>
                    <g id="Clip-12"></g>
                    <path d="M74.3372364,5.69173686 C36.3068805,5.69173686 5.36665169,36.6319657 5.36665169,74.662953 C5.36665169,112.693309 36.3068805,143.633538 74.3372364,143.633538 C112.367592,143.633538 143.308453,112.693309 143.308453,74.662953 C143.308453,36.6319657 112.367592,5.69173686 74.3372364,5.69173686 M74.3372364,149.000063 C33.3477153,149.000063 0.000126271186,115.652474 0.000126271186,74.662953 C0.000126271186,33.6728004 33.3477153,0.325211441 74.3372364,0.325211441 C115.327389,0.325211441 148.674978,33.6728004 148.674978,74.662953 C148.674978,115.652474 115.327389,149.000063 74.3372364,149.000063" id="Fill-11" fill="#FFFFFF" sketch:type="MSShapeGroup" mask="url(#mask-2)"></path>
                </g>
            </g>
        </g>
    </g>
</svg>