<?xml version="1.0" encoding="utf-8"?>
<!-- Generator: Adobe Illustrator 16.0.0, SVG Export Plug-In . SVG Version: 6.00 Build 0)  -->
<!DOCTYPE svg PUBLIC "-//W3C//DTD SVG 1.1//EN" "http://www.w3.org/Graphics/SVG/1.1/DTD/svg11.dtd">
<svg version="1.1" id="Layer_1" xmlns="http://www.w3.org/2000/svg" xmlns:xlink="http://www.w3.org/1999/xlink" x="0px" y="0px"
	 width="233.489px" height="233.48px" viewBox="0 0 233.489 233.48" enable-background="new 0 0 233.489 233.48"
	 xml:space="preserve">
<g>
	<path fill="#FFFFFF" d="M73.896,103.151h-7.571l-4.733,22.401c-2.919,13.726-7.729,25.714-18.063,25.714
		c-4.811,0-7.177-2.839-7.177-5.521s1.341-4.575,4.022-4.575c1.972,0,3.392,1.183,3.392,2.998c0,2.05-0.946,2.05-0.946,3.234
		c0,0.552,0.394,0.868,1.419,0.868c2.839,0,4.496-2.445,6.547-12.147l6.862-32.971h-7.572l0.947-3.628h7.257
		c2.682-9.859,6.94-20.351,16.327-20.351c4.733,0,8.439,2.051,8.439,5.995c0,2.446-1.419,4.103-4.181,4.103
		c-2.207,0-3.706-1.499-3.706-3.234c0-1.894,1.024-2.05,1.024-3.154c0-0.71-0.788-1.026-1.577-1.026
		c-3.312,0-5.758,5.916-7.652,17.668h7.573L73.896,103.151z"/>
	<path fill="#FFFFFF" d="M101.558,127.413c-3.55,4.18-9.702,8.597-16.958,8.597c-6.864,0-11.281-4.417-11.281-12.069
		c0-13.172,11.201-26.897,23.506-26.897c5.679,0,9.466,2.209,9.466,6.941c0,9.938-16.171,14.277-23.586,16.013
		c-0.235,1.419-0.394,2.918-0.394,4.181c0,4.338,2.209,7.099,6.705,7.099c2.84,0,6.94-1.658,10.729-5.838L101.558,127.413z
		 M83.258,117c5.283-1.735,15.303-6.389,15.303-13.566c0-1.894-1.184-3.393-3.234-3.393C88.856,100.042,84.125,112.032,83.258,117z"
		/>
	<path fill="#FFFFFF" d="M111.518,98.97c6.625-0.789,13.014-1.971,14.038-1.971c0.475,0,0.947,0.157,0.947,0.552
		c0,0.552-0.314,1.342-0.788,2.997c-0.552,2.131-7.415,24.768-7.415,28.239c0,1.341,0.474,1.656,1.342,1.656
		c2.208,0,4.339-4.022,5.127-5.284l1.499,0.867c-1.342,2.604-5.128,9.938-11.99,9.938c-3.075,0-4.97-1.813-4.97-4.811
		c0-4.497,6.705-26.188,6.705-27.924c0-2.05-1.498-2.445-4.89-2.523L111.518,98.97z M124.373,80.118
		c2.762,0,5.049,2.289,5.049,5.048c0,2.762-2.287,5.048-5.049,5.048c-2.76,0-5.048-2.287-5.048-5.048
		C119.325,82.406,121.613,80.118,124.373,80.118z"/>
	<path fill="#FFFFFF" d="M134.064,98.576c7.021-1.421,12.227-5.522,14.593-12.069h2.524l-2.604,11.438h8.125l-0.711,3.629h-8.203
		c-2.918,12.303-6.468,25.397-6.468,27.528c0,0.947,0.632,1.656,1.578,1.656c1.577,0,3.786-2.288,6.389-5.837l1.499,1.183
		c-1.895,2.839-6.705,9.859-12.936,9.859c-3.787,0-5.522-1.499-5.522-4.732c0-3.55,3.865-17.354,6.783-29.658h-5.6L134.064,98.576z"
		/>
	<path fill="#FFFFFF" d="M170.671,135.964c-7.099,0-14.356-4.259-14.356-14.829c0-11.358,9.546-24.137,21.377-24.137
		c7.099,0,14.355,4.259,14.355,14.987C192.047,123.186,182.502,135.964,170.671,135.964z M170.594,132.967
		c9.542,0,12.777-20.115,12.777-25.793c0-4.892-2.524-7.179-5.601-7.179c-9.229,0-12.779,20.272-12.779,25.951
		C164.991,131.073,167.121,132.967,170.594,132.967z"/>
</g>
<path fill="#FFFFFF" d="M116.75,6.578C55.996,6.578,6.578,55.997,6.578,116.74c0,60.743,49.418,110.162,110.172,110.162
	c60.742,0,110.161-49.419,110.161-110.162C226.911,55.997,177.492,6.578,116.75,6.578z M116.75,220.768
	c-57.365,0-104.038-46.664-104.038-104.028S59.385,12.711,116.75,12.711c57.354,0,104.027,46.664,104.027,104.028
	S174.104,220.768,116.75,220.768z"/>
</svg>
